<svg width="18" height="20" viewBox="0 0 18 20" fill="none" xmlns="http://www.w3.org/2000/svg">
<path d="M7.20993 17.8501C7.36597 18.1237 7.5904 18.3509 7.86065 18.5089C8.1309 18.6668 8.43746 18.75 8.74952 18.75C9.06157 18.75 9.36813 18.6668 9.63838 18.5089C9.90864 18.3509 10.1331 18.1237 10.2891 17.8501M0.982244 12.7435C0.866121 12.8723 0.789488 13.0326 0.761667 13.2047C0.733845 13.3769 0.756035 13.5535 0.825536 13.7131C0.895037 13.8727 1.00885 14.0085 1.15314 14.1038C1.29743 14.1991 1.46597 14.2499 1.63826 14.2501H15.8608C16.033 14.2501 16.2016 14.1995 16.346 14.1044C16.4904 14.0092 16.6043 13.8736 16.674 13.7141C16.7437 13.5546 16.7661 13.378 16.7385 13.2059C16.7109 13.0337 16.6345 12.8734 16.5186 12.7444C15.3363 11.5104 14.083 10.1991 14.083 6.15002C14.083 4.71785 13.521 3.34433 12.5208 2.33163C11.5206 1.31893 10.164 0.75 8.74952 0.75C7.335 0.75 5.97842 1.31893 4.9782 2.33163C3.97799 3.34433 3.41607 4.71785 3.41607 6.15002C3.41607 10.1991 2.16182 11.5104 0.982244 12.7435Z" stroke="#555555" stroke-width="1.5" stroke-linecap="round" stroke-linejoin="round"/>
</svg>
