<svg width="790" height="890" viewBox="0 0 790 890" fill="none" xmlns="http://www.w3.org/2000/svg">
<rect x="24" width="667" height="890" rx="24" fill="#0F62FE"/>
<path d="M-75 17V872.652M-56.2174 17V872.652M-37.4348 17V872.652M-18.6522 17V872.652M789 28.9255L-75 28.9254M0.130432 17V872.652M789 49.795L-75 49.795M18.913 17V872.652M789 70.6646L-75 70.6646M37.6956 17V872.652M789 91.5342L-75 91.5341M56.4783 17V872.652M789 112.404L-75 112.404M75.2609 17V872.652M789 133.273L-75 133.273M94.0435 17V872.652M789 154.143L-75 154.143M112.826 17V872.652M789 175.012L-75 175.012M131.609 17V872.652M789 195.882L-75 195.882M150.391 17V872.652M789 216.752L-75 216.751M169.174 17V872.652M789 237.621L-75 237.621M187.957 17V872.652M789 258.491L-75 258.491M206.739 17V872.652M789 279.36L-75 279.36M225.522 17V872.652M789 300.23L-75 300.23M244.304 17V872.652M789 321.099L-75 321.099M263.087 17V872.652M789 341.969L-75 341.969M281.87 17V872.652M789 362.839L-75 362.838M300.652 17V872.652M789 383.708L-75 383.708M319.435 17V872.652M789 404.578L-75 404.578M338.217 17V872.652M789 425.447L-75 425.447M357 17V872.652M789 446.317L-75 446.317M375.783 17V872.652M789 467.186L-75 467.186M394.565 17V872.652M789 488.056H-75M413.348 17V872.652M789 508.925H-75M432.13 17V872.652M789 529.795H-75M450.913 17V872.652M789 550.665H-75M469.696 17V872.652M789 571.534L-75 571.534M488.478 17V872.652M789 592.404L-75 592.404M507.261 17V872.652M789 613.273L-75 613.273M526.043 17V872.652M789 634.143L-75 634.143M544.826 17V872.652M789 655.012L-75 655.012M563.609 17V872.652M789 675.882L-75 675.882M582.391 17V872.652M789 696.752L-75 696.751M601.174 17V872.652M789 717.621L-75 717.621M619.957 17V872.652M789 738.491L-75 738.491M638.739 17V872.652M789 759.36L-75 759.36M657.522 17V872.652M789 780.23L-75 780.23M676.304 17V872.652M789 801.099H-75M695.087 17V872.652M789 821.969H-75M713.87 17V872.652M789 842.839H-75M732.652 17V872.652M789 863.708H-75M751.435 17V872.652M770.217 17V872.652M789 17V872.652" stroke="url(#paint0_radial_58_2323)" stroke-opacity="0.3"/>
<rect x="334" y="838" width="16" height="8" rx="4" fill="#555555"/>
<circle cx="362" cy="842" r="4" fill="#ECEDEE"/>
<circle cx="378" cy="842" r="4" fill="#ECEDEE"/>
<path d="M425.625 415.164V526.75C425.626 527.866 425.407 528.972 424.98 530.004C424.554 531.035 423.928 531.973 423.139 532.763C422.35 533.553 421.413 534.179 420.382 534.607C419.35 535.034 418.245 535.254 417.129 535.254H293.984C292.867 535.255 291.76 535.036 290.727 534.609C289.695 534.182 288.756 533.556 287.966 532.766C287.175 531.976 286.548 531.038 286.12 530.006C285.692 528.974 285.472 527.867 285.472 526.75V415.164C285.472 414.047 285.693 412.941 286.12 411.909C286.548 410.877 287.176 409.94 287.966 409.151C288.757 408.362 289.695 407.736 290.728 407.31C291.76 406.884 292.867 406.666 293.984 406.668H417.121C418.237 406.667 419.343 406.886 420.374 407.313C421.406 407.739 422.344 408.365 423.133 409.154C423.923 409.943 424.55 410.88 424.977 411.911C425.405 412.942 425.625 414.048 425.625 415.164Z" fill="#E3E4E5"/>
<path d="M425.625 415.164V526.75C425.626 527.867 425.407 528.973 424.98 530.005C424.554 531.037 423.928 531.974 423.138 532.764C422.349 533.554 421.411 534.18 420.38 534.608C419.348 535.035 418.242 535.255 417.125 535.254H293.985C292.868 535.255 291.761 535.035 290.729 534.608C289.697 534.181 288.759 533.554 287.969 532.765C287.179 531.975 286.552 531.037 286.125 530.005C285.697 528.973 285.477 527.867 285.477 526.75V415.164C285.477 414.047 285.697 412.942 286.125 411.91C286.552 410.879 287.179 409.941 287.969 409.152C288.76 408.363 289.698 407.738 290.73 407.311C291.762 406.885 292.868 406.666 293.985 406.668H417.117C418.234 406.666 419.34 406.885 420.372 407.311C421.405 407.738 422.342 408.363 423.133 409.152C423.923 409.941 424.55 410.879 424.977 411.91C425.405 412.942 425.625 414.047 425.625 415.164Z" fill="#E3E4E5"/>
<path d="M425.625 415.164V428.613H285.472V415.164C285.472 414.047 285.693 412.941 286.12 411.909C286.548 410.877 287.175 409.939 287.966 409.15C288.757 408.36 289.695 407.734 290.728 407.308C291.76 406.881 292.867 406.663 293.984 406.664H417.117C418.234 406.663 419.34 406.882 420.372 407.309C421.404 407.736 422.342 408.362 423.132 409.151C423.922 409.94 424.549 410.878 424.977 411.91C425.404 412.941 425.625 414.047 425.625 415.164Z" fill="white"/>
<path d="M426.796 429.785H284.3V415.164C284.303 412.598 285.325 410.138 287.141 408.324C288.956 406.511 291.418 405.492 293.984 405.492H417.117C419.682 405.493 422.143 406.512 423.957 408.326C425.772 410.139 426.793 412.599 426.796 415.164V429.785ZM286.652 427.441H424.453V415.164C424.451 413.221 423.678 411.358 422.304 409.985C420.93 408.611 419.068 407.838 417.125 407.836H293.984C292.039 407.836 290.174 408.608 288.798 409.982C287.422 411.356 286.647 413.22 286.644 415.164L286.652 427.441Z" fill="white"/>
<path d="M299.024 421.481C301.144 421.481 302.863 419.761 302.863 417.641C302.863 415.52 301.144 413.801 299.024 413.801C296.903 413.801 295.184 415.52 295.184 417.641C295.184 419.761 296.903 421.481 299.024 421.481Z" fill="#F9F9F9"/>
<path d="M313.777 421.48C315.898 421.48 317.617 419.761 317.617 417.641C317.617 415.52 315.898 413.801 313.777 413.801C311.657 413.801 309.938 415.52 309.938 417.641C309.938 419.761 311.657 421.48 313.777 421.48Z" fill="#F9F9F9"/>
<path d="M338.949 450.961C338.049 452.108 336.766 452.892 335.334 453.169C333.903 453.446 332.42 453.197 331.157 452.469C329.894 451.74 328.936 450.581 328.458 449.203C327.981 447.826 328.017 446.322 328.559 444.969C325.205 444.146 321.702 444.146 318.348 444.969C318.893 446.322 318.931 447.826 318.456 449.205C317.98 450.584 317.023 451.746 315.76 452.475C314.497 453.205 313.012 453.453 311.58 453.176C310.148 452.899 308.864 452.113 307.965 450.965C305.576 453.457 303.826 456.492 302.867 459.809C304.313 460.011 305.637 460.73 306.596 461.832C307.554 462.933 308.082 464.344 308.082 465.805C308.082 467.265 307.554 468.676 306.596 469.778C305.637 470.88 304.313 471.598 302.867 471.801C303.84 475.112 305.59 478.143 307.973 480.641C308.871 479.49 310.155 478.703 311.588 478.424C313.02 478.145 314.506 478.394 315.77 479.123C317.034 479.852 317.993 481.014 318.468 482.394C318.944 483.774 318.906 485.279 318.359 486.633C321.713 487.455 325.216 487.455 328.57 486.633C328.025 485.28 327.987 483.775 328.462 482.396C328.938 481.017 329.895 479.856 331.158 479.127C332.421 478.397 333.906 478.148 335.338 478.426C336.77 478.703 338.054 479.488 338.953 480.637C341.342 478.144 343.092 475.11 344.051 471.793C342.605 471.59 341.281 470.872 340.322 469.77C339.364 468.668 338.836 467.257 338.836 465.797C338.836 464.337 339.364 462.926 340.322 461.824C341.281 460.722 342.605 460.003 344.051 459.801C343.078 456.49 341.329 453.46 338.949 450.961ZM327.422 472.672C326.063 473.459 324.502 473.826 322.935 473.726C321.368 473.626 319.865 473.063 318.618 472.109C317.371 471.155 316.435 469.853 315.928 468.366C315.421 466.88 315.367 465.277 315.771 463.76C316.176 462.242 317.021 460.879 318.201 459.843C319.381 458.806 320.841 458.143 322.398 457.936C323.954 457.73 325.537 457.99 326.946 458.683C328.355 459.377 329.527 460.473 330.312 461.832C331.366 463.653 331.654 465.818 331.112 467.851C330.57 469.883 329.242 471.618 327.422 472.672Z" fill="#555555"/>
<path d="M407.727 444.352H357.27V520.883H407.727V444.352Z" fill="#F9F9F9"/>
<path d="M398.496 466.387H367.238V471.684H398.496V466.387Z" fill="#E3E4E5"/>
<path d="M389.363 480.23H367.238V485.527H389.363V480.23Z" fill="#E3E4E5"/>
<path d="M378.004 494.074H367.238V499.371H378.004V494.074Z" fill="#E3E4E5"/>
<path d="M376.269 453.555H367.238V458.852H376.269V453.555Z" fill="#E3E4E5"/>
<path d="M398.496 453.555H384.051V458.852H398.496V453.555Z" fill="#E3E4E5"/>
<path d="M344.016 499.371H302.895V520.879H344.016V499.371Z" fill="#F9F9F9"/>
<path d="M425.625 507.531V526.75C425.626 527.867 425.407 528.973 424.98 530.005C424.553 531.037 423.927 531.974 423.138 532.764C422.348 533.554 421.411 534.18 420.379 534.608C419.347 535.035 418.241 535.254 417.125 535.254H371.078V520.934C371.082 517.38 372.496 513.973 375.009 511.46C377.523 508.947 380.93 507.534 384.484 507.531H425.625Z" fill="#ECEDEE" style="mix-blend-mode:multiply"/>
<path d="M417.121 536.426H293.984C291.417 536.425 288.956 535.405 287.141 533.591C285.325 531.777 284.303 529.317 284.3 526.75V415.164C284.305 412.599 285.327 410.14 287.142 408.327C288.958 406.514 291.418 405.496 293.984 405.496H417.121C419.686 405.496 422.145 406.514 423.96 408.327C425.774 410.14 426.794 412.599 426.796 415.164V526.75C426.794 529.316 425.774 531.775 423.96 533.59C422.146 535.404 419.686 536.424 417.121 536.426ZM293.984 407.84C292.04 407.839 290.175 408.61 288.798 409.983C287.422 411.356 286.647 413.22 286.644 415.164V526.75C286.646 528.695 287.42 530.56 288.797 531.935C290.173 533.31 292.039 534.082 293.984 534.082H417.121C419.065 534.081 420.929 533.308 422.304 531.933C423.679 530.559 424.452 528.694 424.453 526.75V415.164C424.451 413.222 423.678 411.361 422.305 409.987C420.932 408.614 419.07 407.842 417.129 407.84H293.984Z" fill="white"/>
<path d="M440.098 514.457H383.91C380.648 514.457 378.004 517.101 378.004 520.363V557.492C378.004 560.754 380.648 563.398 383.91 563.398H440.098C443.36 563.398 446.004 560.754 446.004 557.492V520.363C446.004 517.101 443.36 514.457 440.098 514.457Z" fill="#F9F9F9"/>
<path d="M440.098 564.57H383.91C382.034 564.568 380.234 563.822 378.907 562.495C377.58 561.168 376.834 559.369 376.832 557.492V520.363C376.834 518.487 377.58 516.688 378.907 515.361C380.234 514.034 382.034 513.287 383.91 513.285H440.098C441.975 513.286 443.774 514.032 445.102 515.359C446.429 516.687 447.175 518.486 447.176 520.363V557.492C447.174 559.369 446.427 561.168 445.1 562.495C443.773 563.822 441.974 564.568 440.098 564.57ZM383.91 515.629C382.655 515.63 381.451 516.129 380.564 517.017C379.676 517.904 379.177 519.108 379.176 520.363V557.492C379.178 558.747 379.677 559.95 380.565 560.838C381.452 561.725 382.655 562.224 383.91 562.227H440.098C441.353 562.226 442.557 561.726 443.444 560.839C444.332 559.951 444.831 558.748 444.832 557.492V520.363C444.832 519.108 444.333 517.903 443.445 517.016C442.558 516.128 441.353 515.629 440.098 515.629H383.91Z" fill="white"/>
<path d="M398.195 524.102H393.07V553.539H398.195V524.102Z" fill="#0F62FE"/>
<path d="M401.379 527.211H389.894V532.336H401.379V527.211Z" fill="#0F62FE"/>
<path d="M415.109 524.102H409.984V553.539H415.109V524.102Z" fill="#0F62FE"/>
<path d="M418.289 543.969H406.805V549.094H418.289V543.969Z" fill="#0F62FE"/>
<path d="M432.02 524.102H426.895V553.539H432.02V524.102Z" fill="#0F62FE"/>
<path d="M435.203 531.195H423.718V536.32H435.203V531.195Z" fill="#0F62FE"/>
<path d="M296.168 554.82C295.255 554.821 294.362 554.551 293.602 554.044C292.842 553.537 292.25 552.816 291.899 551.973C291.549 551.129 291.457 550.201 291.635 549.305C291.813 548.409 292.252 547.586 292.898 546.94C293.543 546.294 294.366 545.853 295.262 545.675C296.158 545.496 297.086 545.588 297.93 545.937C298.774 546.286 299.495 546.878 300.003 547.638C300.51 548.397 300.781 549.29 300.781 550.203C300.78 551.427 300.294 552.6 299.429 553.465C298.564 554.331 297.392 554.818 296.168 554.82ZM296.168 547.934C295.718 547.933 295.278 548.066 294.903 548.315C294.529 548.565 294.237 548.92 294.064 549.335C293.892 549.751 293.847 550.208 293.934 550.65C294.022 551.091 294.238 551.496 294.557 551.815C294.875 552.133 295.28 552.349 295.721 552.437C296.163 552.525 296.62 552.479 297.036 552.307C297.451 552.134 297.806 551.842 298.056 551.468C298.305 551.093 298.438 550.653 298.438 550.203C298.439 549.904 298.381 549.608 298.267 549.332C298.154 549.055 297.987 548.804 297.776 548.592C297.565 548.38 297.314 548.212 297.039 548.097C296.763 547.982 296.467 547.922 296.168 547.922V547.934Z" fill="white"/>
<path d="M276.559 541.91C275.846 541.91 275.15 541.699 274.558 541.303C273.965 540.907 273.504 540.345 273.231 539.687C272.959 539.029 272.887 538.305 273.026 537.606C273.165 536.907 273.508 536.266 274.012 535.762C274.516 535.258 275.157 534.915 275.856 534.776C276.555 534.637 277.279 534.709 277.937 534.981C278.595 535.254 279.157 535.715 279.553 536.308C279.949 536.9 280.16 537.596 280.16 538.309C280.159 539.263 279.779 540.179 279.104 540.854C278.429 541.529 277.513 541.909 276.559 541.91ZM276.559 537.051C276.31 537.051 276.067 537.125 275.86 537.263C275.653 537.401 275.492 537.597 275.397 537.827C275.301 538.057 275.276 538.31 275.325 538.554C275.373 538.798 275.493 539.022 275.669 539.198C275.845 539.374 276.069 539.494 276.313 539.542C276.557 539.591 276.81 539.566 277.04 539.471C277.27 539.375 277.466 539.214 277.604 539.007C277.743 538.801 277.816 538.557 277.816 538.309C277.815 537.975 277.683 537.656 277.447 537.42C277.211 537.185 276.892 537.052 276.559 537.051Z" fill="white"/>
<path d="M432.766 397.252L427.999 402.02L429.657 403.677L434.423 398.909L432.766 397.252Z" fill="white"/>
<path d="M424.445 392.582H422.102V399.324H424.445V392.582Z" fill="white"/>
<path d="M439.293 406.836H432.551V409.18H439.293V406.836Z" fill="white"/>
<path d="M438.906 507.457H436.562V505.113H438.906V507.457ZM438.906 501.207H436.562V498.863H438.906V501.207ZM438.906 494.957H436.562V492.613H438.906V494.957ZM438.906 488.707H436.562V486.363H438.906V488.707ZM438.906 482.457H436.562V480.113H438.906V482.457ZM438.906 476.207H436.562V473.863H438.906V476.207ZM438.906 469.957H436.562V467.613H438.906V469.957ZM438.906 463.707H436.562V461.363H438.906V463.707ZM438.906 457.457H436.562V455.113H438.906V457.457Z" fill="white"/>
<path d="M419.602 457.375H417.258V455.031H419.602V457.375ZM413.352 457.375H411.008V455.031H413.352V457.375Z" fill="#555555"/>
<path d="M432.5 455.031H430.156V457.375H432.5V455.031Z" fill="white"/>
<path d="M335.422 507.477H311.488V512.773H335.422V507.477Z" fill="#E3E4E5"/>
<path d="M263.936 163.227V160.727H281.391V163.227H274.072V184H271.254V163.227H263.936ZM288.138 184.409C287.032 184.409 286.028 184.201 285.126 183.784C284.225 183.36 283.509 182.75 282.979 181.955C282.448 181.152 282.183 180.182 282.183 179.045C282.183 178.045 282.38 177.235 282.774 176.614C283.168 175.985 283.695 175.492 284.354 175.136C285.013 174.78 285.74 174.515 286.536 174.341C287.339 174.159 288.145 174.015 288.956 173.909C290.017 173.773 290.876 173.67 291.536 173.602C292.202 173.527 292.687 173.402 292.99 173.227C293.301 173.053 293.456 172.75 293.456 172.318V172.227C293.456 171.106 293.149 170.235 292.536 169.614C291.929 168.992 291.009 168.682 289.774 168.682C288.494 168.682 287.49 168.962 286.763 169.523C286.036 170.083 285.524 170.682 285.229 171.318L282.683 170.409C283.138 169.348 283.744 168.523 284.501 167.932C285.267 167.333 286.1 166.917 287.001 166.682C287.911 166.439 288.804 166.318 289.683 166.318C290.244 166.318 290.888 166.386 291.615 166.523C292.35 166.652 293.058 166.92 293.74 167.33C294.429 167.739 295.001 168.356 295.456 169.182C295.911 170.008 296.138 171.114 296.138 172.5V184H293.456V181.636H293.32C293.138 182.015 292.835 182.42 292.411 182.852C291.986 183.284 291.422 183.652 290.717 183.955C290.013 184.258 289.153 184.409 288.138 184.409ZM288.547 182C289.607 182 290.501 181.792 291.229 181.375C291.964 180.958 292.517 180.42 292.888 179.761C293.267 179.102 293.456 178.409 293.456 177.682V175.227C293.342 175.364 293.092 175.489 292.706 175.602C292.327 175.708 291.888 175.803 291.388 175.886C290.895 175.962 290.414 176.03 289.945 176.091C289.482 176.144 289.107 176.189 288.82 176.227C288.123 176.318 287.471 176.466 286.865 176.67C286.267 176.867 285.782 177.167 285.411 177.568C285.047 177.962 284.865 178.5 284.865 179.182C284.865 180.114 285.21 180.818 285.899 181.295C286.596 181.765 287.479 182 288.547 182ZM303.533 177.636L303.487 174.318H304.033L311.669 166.545H314.987L306.851 174.773H306.624L303.533 177.636ZM301.033 184V160.727H303.714V184H301.033ZM312.124 184L305.305 175.364L307.214 173.5L315.533 184H312.124ZM325.038 184.364C323.357 184.364 321.906 183.992 320.686 183.25C319.474 182.5 318.538 181.455 317.879 180.114C317.228 178.765 316.902 177.197 316.902 175.409C316.902 173.621 317.228 172.045 317.879 170.682C318.538 169.311 319.455 168.242 320.629 167.477C321.811 166.705 323.19 166.318 324.766 166.318C325.675 166.318 326.572 166.47 327.459 166.773C328.345 167.076 329.152 167.568 329.879 168.25C330.607 168.924 331.186 169.818 331.618 170.932C332.05 172.045 332.266 173.417 332.266 175.045V176.182H318.811V173.864H329.538C329.538 172.879 329.341 172 328.947 171.227C328.561 170.455 328.008 169.845 327.288 169.398C326.576 168.951 325.735 168.727 324.766 168.727C323.697 168.727 322.773 168.992 321.993 169.523C321.22 170.045 320.625 170.727 320.209 171.568C319.792 172.409 319.584 173.311 319.584 174.273V175.818C319.584 177.136 319.811 178.254 320.266 179.17C320.728 180.08 321.368 180.773 322.186 181.25C323.004 181.72 323.955 181.955 325.038 181.955C325.743 181.955 326.379 181.856 326.947 181.659C327.523 181.455 328.019 181.152 328.436 180.75C328.853 180.341 329.175 179.833 329.402 179.227L331.993 179.955C331.72 180.833 331.262 181.606 330.618 182.273C329.974 182.932 329.179 183.447 328.232 183.818C327.285 184.182 326.22 184.364 325.038 184.364ZM364.436 168H361.618C361.451 167.189 361.16 166.477 360.743 165.864C360.334 165.25 359.834 164.735 359.243 164.318C358.66 163.894 358.012 163.576 357.3 163.364C356.588 163.152 355.845 163.045 355.072 163.045C353.663 163.045 352.387 163.402 351.243 164.114C350.107 164.826 349.201 165.875 348.527 167.261C347.86 168.648 347.527 170.348 347.527 172.364C347.527 174.379 347.86 176.08 348.527 177.466C349.201 178.852 350.107 179.902 351.243 180.614C352.387 181.326 353.663 181.682 355.072 181.682C355.845 181.682 356.588 181.576 357.3 181.364C358.012 181.152 358.66 180.837 359.243 180.42C359.834 179.996 360.334 179.477 360.743 178.864C361.16 178.242 361.451 177.53 361.618 176.727H364.436C364.224 177.917 363.838 178.981 363.277 179.92C362.716 180.86 362.019 181.659 361.186 182.318C360.353 182.97 359.417 183.466 358.379 183.807C357.349 184.148 356.247 184.318 355.072 184.318C353.088 184.318 351.322 183.833 349.777 182.864C348.232 181.894 347.016 180.515 346.129 178.727C345.243 176.939 344.8 174.818 344.8 172.364C344.8 169.909 345.243 167.788 346.129 166C347.016 164.212 348.232 162.833 349.777 161.864C351.322 160.894 353.088 160.409 355.072 160.409C356.247 160.409 357.349 160.58 358.379 160.92C359.417 161.261 360.353 161.761 361.186 162.42C362.019 163.072 362.716 163.867 363.277 164.807C363.838 165.739 364.224 166.803 364.436 168ZM371.308 173.5V184H368.626V160.727H371.308V169.273H371.536C371.945 168.371 372.558 167.655 373.376 167.125C374.202 166.587 375.301 166.318 376.672 166.318C377.861 166.318 378.903 166.557 379.797 167.034C380.691 167.504 381.384 168.227 381.876 169.205C382.376 170.174 382.626 171.409 382.626 172.909V184H379.945V173.091C379.945 171.705 379.585 170.633 378.865 169.875C378.153 169.11 377.164 168.727 375.899 168.727C375.02 168.727 374.232 168.913 373.536 169.284C372.846 169.655 372.301 170.197 371.899 170.909C371.505 171.621 371.308 172.485 371.308 173.5ZM392.669 184.409C391.563 184.409 390.559 184.201 389.658 183.784C388.756 183.36 388.04 182.75 387.51 181.955C386.98 181.152 386.714 180.182 386.714 179.045C386.714 178.045 386.911 177.235 387.305 176.614C387.699 175.985 388.226 175.492 388.885 175.136C389.544 174.78 390.271 174.515 391.067 174.341C391.87 174.159 392.677 174.015 393.487 173.909C394.548 173.773 395.408 173.67 396.067 173.602C396.733 173.527 397.218 173.402 397.521 173.227C397.832 173.053 397.987 172.75 397.987 172.318V172.227C397.987 171.106 397.68 170.235 397.067 169.614C396.461 168.992 395.54 168.682 394.305 168.682C393.025 168.682 392.021 168.962 391.294 169.523C390.567 170.083 390.055 170.682 389.76 171.318L387.214 170.409C387.669 169.348 388.275 168.523 389.033 167.932C389.798 167.333 390.631 166.917 391.533 166.682C392.442 166.439 393.336 166.318 394.214 166.318C394.775 166.318 395.419 166.386 396.146 166.523C396.881 166.652 397.589 166.92 398.271 167.33C398.961 167.739 399.533 168.356 399.987 169.182C400.442 170.008 400.669 171.114 400.669 172.5V184H397.987V181.636H397.851C397.669 182.015 397.366 182.42 396.942 182.852C396.518 183.284 395.953 183.652 395.249 183.955C394.544 184.258 393.684 184.409 392.669 184.409ZM393.078 182C394.139 182 395.033 181.792 395.76 181.375C396.495 180.958 397.048 180.42 397.419 179.761C397.798 179.102 397.987 178.409 397.987 177.682V175.227C397.874 175.364 397.624 175.489 397.237 175.602C396.858 175.708 396.419 175.803 395.919 175.886C395.427 175.962 394.946 176.03 394.476 176.091C394.014 176.144 393.639 176.189 393.351 176.227C392.654 176.318 392.002 176.466 391.396 176.67C390.798 176.867 390.313 177.167 389.942 177.568C389.578 177.962 389.396 178.5 389.396 179.182C389.396 180.114 389.741 180.818 390.43 181.295C391.127 181.765 392.01 182 393.078 182ZM405.564 184V166.545H408.155V169.182H408.337C408.655 168.318 409.231 167.617 410.064 167.08C410.897 166.542 411.837 166.273 412.882 166.273C413.079 166.273 413.325 166.277 413.621 166.284C413.916 166.292 414.14 166.303 414.291 166.318V169.045C414.2 169.023 413.992 168.989 413.666 168.943C413.348 168.89 413.011 168.864 412.655 168.864C411.806 168.864 411.049 169.042 410.382 169.398C409.723 169.746 409.2 170.231 408.814 170.852C408.435 171.466 408.246 172.167 408.246 172.955V184H405.564ZM423.984 190.909C422.689 190.909 421.575 190.742 420.643 190.409C419.712 190.083 418.935 189.652 418.314 189.114C417.7 188.583 417.212 188.015 416.848 187.409L418.984 185.909C419.227 186.227 419.534 186.591 419.905 187C420.276 187.417 420.784 187.777 421.428 188.08C422.079 188.39 422.931 188.545 423.984 188.545C425.393 188.545 426.556 188.205 427.473 187.523C428.39 186.841 428.848 185.773 428.848 184.318V180.773H428.621C428.424 181.091 428.143 181.485 427.78 181.955C427.424 182.417 426.909 182.83 426.234 183.193C425.568 183.549 424.666 183.727 423.53 183.727C422.121 183.727 420.856 183.394 419.734 182.727C418.621 182.061 417.738 181.091 417.087 179.818C416.443 178.545 416.121 177 416.121 175.182C416.121 173.394 416.435 171.837 417.064 170.511C417.693 169.178 418.568 168.148 419.689 167.42C420.81 166.686 422.106 166.318 423.575 166.318C424.712 166.318 425.613 166.508 426.28 166.886C426.954 167.258 427.469 167.682 427.825 168.159C428.189 168.629 428.469 169.015 428.666 169.318H428.939V166.545H431.53V184.5C431.53 186 431.189 187.22 430.507 188.159C429.833 189.106 428.924 189.799 427.78 190.239C426.643 190.686 425.378 190.909 423.984 190.909ZM423.893 181.318C424.969 181.318 425.878 181.072 426.621 180.58C427.363 180.087 427.928 179.379 428.314 178.455C428.7 177.53 428.893 176.424 428.893 175.136C428.893 173.879 428.704 172.769 428.325 171.807C427.946 170.845 427.386 170.091 426.643 169.545C425.901 169 424.984 168.727 423.893 168.727C422.757 168.727 421.81 169.015 421.053 169.591C420.303 170.167 419.738 170.939 419.359 171.909C418.988 172.879 418.803 173.955 418.803 175.136C418.803 176.348 418.992 177.42 419.371 178.352C419.757 179.277 420.325 180.004 421.075 180.534C421.833 181.057 422.772 181.318 423.893 181.318ZM443.757 184.364C442.075 184.364 440.625 183.992 439.405 183.25C438.193 182.5 437.257 181.455 436.598 180.114C435.946 178.765 435.621 177.197 435.621 175.409C435.621 173.621 435.946 172.045 436.598 170.682C437.257 169.311 438.174 168.242 439.348 167.477C440.53 166.705 441.909 166.318 443.484 166.318C444.393 166.318 445.291 166.47 446.178 166.773C447.064 167.076 447.871 167.568 448.598 168.25C449.325 168.924 449.905 169.818 450.337 170.932C450.768 172.045 450.984 173.417 450.984 175.045V176.182H437.53V173.864H448.257C448.257 172.879 448.06 172 447.666 171.227C447.28 170.455 446.727 169.845 446.007 169.398C445.295 168.951 444.454 168.727 443.484 168.727C442.416 168.727 441.492 168.992 440.712 169.523C439.939 170.045 439.344 170.727 438.928 171.568C438.511 172.409 438.303 173.311 438.303 174.273V175.818C438.303 177.136 438.53 178.254 438.984 179.17C439.446 180.08 440.087 180.773 440.905 181.25C441.723 181.72 442.674 181.955 443.757 181.955C444.462 181.955 445.098 181.856 445.666 181.659C446.242 181.455 446.738 181.152 447.155 180.75C447.571 180.341 447.893 179.833 448.121 179.227L450.712 179.955C450.439 180.833 449.981 181.606 449.337 182.273C448.693 182.932 447.897 183.447 446.95 183.818C446.003 184.182 444.939 184.364 443.757 184.364ZM148.92 229.364C147.345 229.364 145.962 228.989 144.773 228.239C143.591 227.489 142.667 226.439 142 225.091C141.341 223.742 141.011 222.167 141.011 220.364C141.011 218.545 141.341 216.958 142 215.602C142.667 214.246 143.591 213.193 144.773 212.443C145.962 211.693 147.345 211.318 148.92 211.318C150.496 211.318 151.875 211.693 153.057 212.443C154.246 213.193 155.17 214.246 155.83 215.602C156.496 216.958 156.83 218.545 156.83 220.364C156.83 222.167 156.496 223.742 155.83 225.091C155.17 226.439 154.246 227.489 153.057 228.239C151.875 228.989 150.496 229.364 148.92 229.364ZM148.92 226.955C150.117 226.955 151.102 226.648 151.875 226.034C152.648 225.42 153.22 224.614 153.591 223.614C153.962 222.614 154.148 221.53 154.148 220.364C154.148 219.197 153.962 218.11 153.591 217.102C153.22 216.095 152.648 215.28 151.875 214.659C151.102 214.038 150.117 213.727 148.92 213.727C147.723 213.727 146.739 214.038 145.966 214.659C145.193 215.28 144.621 216.095 144.25 217.102C143.879 218.11 143.693 219.197 143.693 220.364C143.693 221.53 143.879 222.614 144.25 223.614C144.621 224.614 145.193 225.42 145.966 226.034C146.739 226.648 147.723 226.955 148.92 226.955ZM168.696 211.545V213.818H159.287V211.545H168.696ZM162.105 229V209.136C162.105 208.136 162.34 207.303 162.81 206.636C163.279 205.97 163.889 205.47 164.639 205.136C165.389 204.803 166.181 204.636 167.014 204.636C167.673 204.636 168.211 204.689 168.628 204.795C169.045 204.902 169.355 205 169.56 205.091L168.787 207.409C168.651 207.364 168.461 207.307 168.219 207.239C167.984 207.17 167.673 207.136 167.287 207.136C166.401 207.136 165.76 207.36 165.366 207.807C164.98 208.254 164.787 208.909 164.787 209.773V229H162.105ZM179.818 205.727H183.045L189.5 216.591H189.773L196.227 205.727H199.455L191.045 219.409V229H188.227V219.409L179.818 205.727ZM207.358 229.364C205.782 229.364 204.4 228.989 203.21 228.239C202.028 227.489 201.104 226.439 200.438 225.091C199.778 223.742 199.449 222.167 199.449 220.364C199.449 218.545 199.778 216.958 200.438 215.602C201.104 214.246 202.028 213.193 203.21 212.443C204.4 211.693 205.782 211.318 207.358 211.318C208.934 211.318 210.313 211.693 211.494 212.443C212.684 213.193 213.608 214.246 214.267 215.602C214.934 216.958 215.267 218.545 215.267 220.364C215.267 222.167 214.934 223.742 214.267 225.091C213.608 226.439 212.684 227.489 211.494 228.239C210.313 228.989 208.934 229.364 207.358 229.364ZM207.358 226.955C208.555 226.955 209.54 226.648 210.312 226.034C211.085 225.42 211.657 224.614 212.028 223.614C212.4 222.614 212.585 221.53 212.585 220.364C212.585 219.197 212.4 218.11 212.028 217.102C211.657 216.095 211.085 215.28 210.312 214.659C209.54 214.038 208.555 213.727 207.358 213.727C206.161 213.727 205.176 214.038 204.403 214.659C203.631 215.28 203.059 216.095 202.688 217.102C202.316 218.11 202.131 219.197 202.131 220.364C202.131 221.53 202.316 222.614 202.688 223.614C203.059 224.614 203.631 225.42 204.403 226.034C205.176 226.648 206.161 226.955 207.358 226.955ZM230.361 221.864V211.545H233.043V229H230.361V226.045H230.179C229.77 226.932 229.134 227.686 228.27 228.307C227.406 228.92 226.315 229.227 224.997 229.227C223.906 229.227 222.937 228.989 222.088 228.511C221.24 228.027 220.573 227.299 220.088 226.33C219.603 225.352 219.361 224.121 219.361 222.636V211.545H222.043V222.455C222.043 223.727 222.399 224.742 223.111 225.5C223.83 226.258 224.747 226.636 225.861 226.636C226.527 226.636 227.205 226.466 227.895 226.125C228.592 225.784 229.175 225.261 229.645 224.557C230.122 223.852 230.361 222.955 230.361 221.864ZM237.955 229V211.545H240.545V214.182H240.727C241.045 213.318 241.621 212.617 242.455 212.08C243.288 211.542 244.227 211.273 245.273 211.273C245.47 211.273 245.716 211.277 246.011 211.284C246.307 211.292 246.53 211.303 246.682 211.318V214.045C246.591 214.023 246.383 213.989 246.057 213.943C245.739 213.89 245.402 213.864 245.045 213.864C244.197 213.864 243.439 214.042 242.773 214.398C242.114 214.746 241.591 215.231 241.205 215.852C240.826 216.466 240.636 217.167 240.636 217.955V229H237.955ZM263.349 205.727V229H258.429V205.727H263.349ZM272.148 218.909V229H267.307V211.545H271.92V214.625H272.125C272.511 213.61 273.159 212.807 274.068 212.216C274.977 211.617 276.08 211.318 277.375 211.318C278.587 211.318 279.644 211.583 280.545 212.114C281.447 212.644 282.148 213.402 282.648 214.386C283.148 215.364 283.398 216.53 283.398 217.886V229H278.557V218.75C278.564 217.682 278.292 216.848 277.739 216.25C277.186 215.644 276.424 215.341 275.455 215.341C274.803 215.341 274.227 215.481 273.727 215.761C273.235 216.042 272.848 216.451 272.568 216.989C272.295 217.519 272.155 218.159 272.148 218.909ZM302.861 211.545L296.759 229H291.304L285.202 211.545H290.315L293.94 224.034H294.122L297.736 211.545H302.861ZM312.73 229.341C310.935 229.341 309.389 228.977 308.094 228.25C306.806 227.515 305.813 226.477 305.116 225.136C304.42 223.788 304.071 222.193 304.071 220.352C304.071 218.557 304.42 216.981 305.116 215.625C305.813 214.269 306.795 213.212 308.06 212.455C309.332 211.697 310.825 211.318 312.537 211.318C313.688 211.318 314.76 211.504 315.753 211.875C316.753 212.239 317.624 212.788 318.366 213.523C319.116 214.258 319.7 215.182 320.116 216.295C320.533 217.402 320.741 218.697 320.741 220.182V221.511H306.003V218.511H316.185C316.185 217.814 316.033 217.197 315.73 216.659C315.427 216.121 315.007 215.701 314.469 215.398C313.938 215.087 313.321 214.932 312.616 214.932C311.882 214.932 311.23 215.102 310.662 215.443C310.101 215.777 309.662 216.227 309.344 216.795C309.026 217.356 308.863 217.981 308.855 218.67V221.523C308.855 222.386 309.014 223.133 309.332 223.761C309.658 224.39 310.116 224.875 310.707 225.216C311.298 225.557 311.999 225.727 312.81 225.727C313.348 225.727 313.84 225.652 314.287 225.5C314.734 225.348 315.116 225.121 315.435 224.818C315.753 224.515 315.995 224.144 316.162 223.705L320.639 224C320.412 225.076 319.946 226.015 319.241 226.818C318.545 227.614 317.643 228.235 316.537 228.682C315.438 229.121 314.17 229.341 312.73 229.341ZM338.423 216.523L333.991 216.795C333.916 216.417 333.753 216.076 333.503 215.773C333.253 215.462 332.923 215.216 332.514 215.034C332.113 214.845 331.632 214.75 331.071 214.75C330.321 214.75 329.688 214.909 329.173 215.227C328.658 215.538 328.401 215.955 328.401 216.477C328.401 216.894 328.567 217.246 328.901 217.534C329.234 217.822 329.806 218.053 330.616 218.227L333.776 218.864C335.473 219.212 336.738 219.773 337.571 220.545C338.404 221.318 338.821 222.333 338.821 223.591C338.821 224.735 338.484 225.739 337.81 226.602C337.143 227.466 336.226 228.14 335.06 228.625C333.901 229.102 332.563 229.341 331.048 229.341C328.738 229.341 326.897 228.86 325.526 227.898C324.162 226.928 323.363 225.61 323.128 223.943L327.889 223.693C328.033 224.398 328.382 224.936 328.935 225.307C329.488 225.67 330.196 225.852 331.06 225.852C331.908 225.852 332.59 225.689 333.105 225.364C333.628 225.03 333.893 224.602 333.901 224.08C333.893 223.64 333.707 223.28 333.344 223C332.98 222.712 332.42 222.492 331.662 222.341L328.639 221.739C326.935 221.398 325.666 220.807 324.832 219.966C324.007 219.125 323.594 218.053 323.594 216.75C323.594 215.629 323.897 214.663 324.503 213.852C325.116 213.042 325.976 212.417 327.082 211.977C328.196 211.538 329.499 211.318 330.991 211.318C333.196 211.318 334.931 211.784 336.196 212.716C337.469 213.648 338.211 214.917 338.423 216.523ZM351.153 211.545V215.182H340.642V211.545H351.153ZM343.028 207.364H347.869V223.636C347.869 224.083 347.938 224.432 348.074 224.682C348.21 224.924 348.4 225.095 348.642 225.193C348.892 225.292 349.18 225.341 349.506 225.341C349.733 225.341 349.96 225.322 350.188 225.284C350.415 225.239 350.589 225.205 350.71 225.182L351.472 228.784C351.229 228.86 350.888 228.947 350.449 229.045C350.009 229.152 349.475 229.216 348.847 229.239C347.68 229.284 346.657 229.129 345.778 228.773C344.907 228.417 344.229 227.864 343.744 227.114C343.259 226.364 343.021 225.417 343.028 224.273V207.364ZM354.307 229V211.545H358.92V214.625H359.125C359.489 213.602 360.095 212.795 360.943 212.205C361.792 211.614 362.807 211.318 363.989 211.318C365.186 211.318 366.205 211.617 367.045 212.216C367.886 212.807 368.447 213.61 368.727 214.625H368.909C369.265 213.625 369.909 212.826 370.841 212.227C371.78 211.621 372.89 211.318 374.17 211.318C375.799 211.318 377.121 211.837 378.136 212.875C379.159 213.905 379.67 215.367 379.67 217.261V229H374.841V218.216C374.841 217.246 374.583 216.519 374.068 216.034C373.553 215.549 372.909 215.307 372.136 215.307C371.258 215.307 370.572 215.587 370.08 216.148C369.587 216.701 369.341 217.432 369.341 218.341V229H364.648V218.114C364.648 217.258 364.402 216.576 363.909 216.068C363.424 215.561 362.784 215.307 361.989 215.307C361.451 215.307 360.966 215.443 360.534 215.716C360.11 215.981 359.773 216.356 359.523 216.841C359.273 217.318 359.148 217.879 359.148 218.523V229H354.307ZM391.449 229.341C389.653 229.341 388.108 228.977 386.812 228.25C385.525 227.515 384.532 226.477 383.835 225.136C383.138 223.788 382.79 222.193 382.79 220.352C382.79 218.557 383.138 216.981 383.835 215.625C384.532 214.269 385.513 213.212 386.778 212.455C388.051 211.697 389.544 211.318 391.256 211.318C392.407 211.318 393.479 211.504 394.472 211.875C395.472 212.239 396.343 212.788 397.085 213.523C397.835 214.258 398.419 215.182 398.835 216.295C399.252 217.402 399.46 218.697 399.46 220.182V221.511H384.722V218.511H394.903C394.903 217.814 394.752 217.197 394.449 216.659C394.146 216.121 393.725 215.701 393.188 215.398C392.657 215.087 392.04 214.932 391.335 214.932C390.6 214.932 389.949 215.102 389.381 215.443C388.82 215.777 388.381 216.227 388.062 216.795C387.744 217.356 387.581 217.981 387.574 218.67V221.523C387.574 222.386 387.733 223.133 388.051 223.761C388.377 224.39 388.835 224.875 389.426 225.216C390.017 225.557 390.718 225.727 391.528 225.727C392.066 225.727 392.559 225.652 393.006 225.5C393.453 225.348 393.835 225.121 394.153 224.818C394.472 224.515 394.714 224.144 394.881 223.705L399.358 224C399.131 225.076 398.665 226.015 397.96 226.818C397.263 227.614 396.362 228.235 395.256 228.682C394.157 229.121 392.888 229.341 391.449 229.341ZM407.46 218.909V229H402.619V211.545H407.233V214.625H407.438C407.824 213.61 408.472 212.807 409.381 212.216C410.29 211.617 411.392 211.318 412.688 211.318C413.9 211.318 414.956 211.583 415.858 212.114C416.759 212.644 417.46 213.402 417.96 214.386C418.46 215.364 418.71 216.53 418.71 217.886V229H413.869V218.75C413.877 217.682 413.604 216.848 413.051 216.25C412.498 215.644 411.737 215.341 410.767 215.341C410.116 215.341 409.54 215.481 409.04 215.761C408.547 216.042 408.161 216.451 407.881 216.989C407.608 217.519 407.468 218.159 407.46 218.909ZM431.81 211.545V215.182H421.298V211.545H431.81ZM423.685 207.364H428.526V223.636C428.526 224.083 428.594 224.432 428.73 224.682C428.866 224.924 429.056 225.095 429.298 225.193C429.548 225.292 429.836 225.341 430.162 225.341C430.389 225.341 430.616 225.322 430.844 225.284C431.071 225.239 431.245 225.205 431.366 225.182L432.128 228.784C431.885 228.86 431.545 228.947 431.105 229.045C430.666 229.152 430.132 229.216 429.503 229.239C428.336 229.284 427.313 229.129 426.435 228.773C425.563 228.417 424.885 227.864 424.401 227.114C423.916 226.364 423.677 225.417 423.685 224.273V207.364ZM449.267 216.523L444.835 216.795C444.759 216.417 444.597 216.076 444.347 215.773C444.097 215.462 443.767 215.216 443.358 215.034C442.956 214.845 442.475 214.75 441.915 214.75C441.165 214.75 440.532 214.909 440.017 215.227C439.502 215.538 439.244 215.955 439.244 216.477C439.244 216.894 439.411 217.246 439.744 217.534C440.078 217.822 440.65 218.053 441.46 218.227L444.619 218.864C446.316 219.212 447.581 219.773 448.415 220.545C449.248 221.318 449.665 222.333 449.665 223.591C449.665 224.735 449.328 225.739 448.653 226.602C447.987 227.466 447.07 228.14 445.903 228.625C444.744 229.102 443.407 229.341 441.892 229.341C439.581 229.341 437.741 228.86 436.369 227.898C435.006 226.928 434.206 225.61 433.972 223.943L438.733 223.693C438.877 224.398 439.225 224.936 439.778 225.307C440.331 225.67 441.04 225.852 441.903 225.852C442.752 225.852 443.434 225.689 443.949 225.364C444.472 225.03 444.737 224.602 444.744 224.08C444.737 223.64 444.551 223.28 444.188 223C443.824 222.712 443.263 222.492 442.506 222.341L439.483 221.739C437.778 221.398 436.509 220.807 435.676 219.966C434.85 219.125 434.438 218.053 434.438 216.75C434.438 215.629 434.741 214.663 435.347 213.852C435.96 213.042 436.82 212.417 437.926 211.977C439.04 211.538 440.343 211.318 441.835 211.318C444.04 211.318 445.775 211.784 447.04 212.716C448.313 213.648 449.055 214.917 449.267 216.523ZM463.562 229L458.812 211.545H463.71L466.415 223.273H466.574L469.392 211.545H474.199L477.062 223.205H477.21L479.869 211.545H484.756L480.017 229H474.892L471.892 218.023H471.676L468.676 229H463.562ZM487.338 229V211.545H492.179V229H487.338ZM489.77 209.295C489.05 209.295 488.433 209.057 487.918 208.58C487.41 208.095 487.156 207.515 487.156 206.841C487.156 206.174 487.41 205.602 487.918 205.125C488.433 204.64 489.05 204.398 489.77 204.398C490.49 204.398 491.103 204.64 491.611 205.125C492.126 205.602 492.384 206.174 492.384 206.841C492.384 207.515 492.126 208.095 491.611 208.58C491.103 209.057 490.49 209.295 489.77 209.295ZM505.341 211.545V215.182H494.83V211.545H505.341ZM497.216 207.364H502.057V223.636C502.057 224.083 502.125 224.432 502.261 224.682C502.398 224.924 502.587 225.095 502.83 225.193C503.08 225.292 503.367 225.341 503.693 225.341C503.92 225.341 504.148 225.322 504.375 225.284C504.602 225.239 504.777 225.205 504.898 225.182L505.659 228.784C505.417 228.86 505.076 228.947 504.636 229.045C504.197 229.152 503.663 229.216 503.034 229.239C501.867 229.284 500.845 229.129 499.966 228.773C499.095 228.417 498.417 227.864 497.932 227.114C497.447 226.364 497.208 225.417 497.216 224.273V207.364ZM513.71 218.909V229H508.869V205.727H513.574V214.625H513.778C514.172 213.595 514.809 212.788 515.688 212.205C516.566 211.614 517.669 211.318 518.994 211.318C520.206 211.318 521.263 211.583 522.165 212.114C523.074 212.636 523.778 213.39 524.278 214.375C524.786 215.352 525.036 216.523 525.028 217.886V229H520.188V218.75C520.195 217.674 519.922 216.837 519.369 216.239C518.824 215.64 518.059 215.341 517.074 215.341C516.415 215.341 515.831 215.481 515.324 215.761C514.824 216.042 514.43 216.451 514.142 216.989C513.862 217.519 513.718 218.159 513.71 218.909ZM550.71 205.727H555.631V220.841C555.631 222.538 555.225 224.023 554.415 225.295C553.612 226.568 552.487 227.561 551.04 228.273C549.593 228.977 547.907 229.33 545.983 229.33C544.051 229.33 542.362 228.977 540.915 228.273C539.468 227.561 538.343 226.568 537.54 225.295C536.737 224.023 536.335 222.538 536.335 220.841V205.727H541.256V220.42C541.256 221.307 541.449 222.095 541.835 222.784C542.229 223.473 542.782 224.015 543.494 224.409C544.206 224.803 545.036 225 545.983 225C546.938 225 547.767 224.803 548.472 224.409C549.184 224.015 549.733 223.473 550.119 222.784C550.513 222.095 550.71 221.307 550.71 220.42V205.727ZM574.111 216.523L569.679 216.795C569.603 216.417 569.44 216.076 569.19 215.773C568.94 215.462 568.611 215.216 568.202 215.034C567.8 214.845 567.319 214.75 566.759 214.75C566.009 214.75 565.376 214.909 564.861 215.227C564.346 215.538 564.088 215.955 564.088 216.477C564.088 216.894 564.255 217.246 564.588 217.534C564.921 217.822 565.493 218.053 566.304 218.227L569.463 218.864C571.16 219.212 572.425 219.773 573.259 220.545C574.092 221.318 574.509 222.333 574.509 223.591C574.509 224.735 574.171 225.739 573.497 226.602C572.83 227.466 571.914 228.14 570.747 228.625C569.588 229.102 568.251 229.341 566.736 229.341C564.425 229.341 562.584 228.86 561.213 227.898C559.849 226.928 559.05 225.61 558.815 223.943L563.577 223.693C563.721 224.398 564.069 224.936 564.622 225.307C565.175 225.67 565.884 225.852 566.747 225.852C567.596 225.852 568.277 225.689 568.793 225.364C569.315 225.03 569.58 224.602 569.588 224.08C569.58 223.64 569.395 223.28 569.031 223C568.668 222.712 568.107 222.492 567.349 222.341L564.327 221.739C562.622 221.398 561.353 220.807 560.52 219.966C559.694 219.125 559.281 218.053 559.281 216.75C559.281 215.629 559.584 214.663 560.19 213.852C560.804 213.042 561.664 212.417 562.77 211.977C563.884 211.538 565.187 211.318 566.679 211.318C568.884 211.318 570.618 211.784 571.884 212.716C573.156 213.648 573.899 214.917 574.111 216.523Z" fill="white"/>
<path d="M296.092 259V258.105C296.092 257.833 296.14 257.545 296.236 257.24C296.336 256.932 296.478 256.635 296.664 256.35C296.853 256.062 297.08 255.812 297.345 255.599L297.981 256.116C297.773 256.415 297.59 256.726 297.434 257.051C297.282 257.373 297.206 257.717 297.206 258.085V259H296.092ZM298.638 259V258.105C298.638 257.833 298.686 257.545 298.782 257.24C298.881 256.932 299.024 256.635 299.209 256.35C299.398 256.062 299.625 255.812 299.89 255.599L300.527 256.116C300.318 256.415 300.136 256.726 299.98 257.051C299.827 257.373 299.751 257.717 299.751 258.085V259H298.638ZM305.123 266H301.981V255.818H305.262C306.25 255.818 307.095 256.022 307.798 256.43C308.5 256.834 309.039 257.416 309.414 258.175C309.788 258.93 309.975 259.835 309.975 260.889C309.975 261.95 309.786 262.863 309.409 263.629C309.031 264.391 308.481 264.978 307.758 265.388C307.035 265.796 306.157 266 305.123 266ZM303.214 264.906H305.044C305.885 264.906 306.583 264.744 307.137 264.419C307.69 264.094 308.103 263.632 308.374 263.032C308.646 262.432 308.782 261.718 308.782 260.889C308.782 260.067 308.648 259.36 308.379 258.766C308.111 258.17 307.71 257.712 307.176 257.394C306.643 257.073 305.978 256.912 305.183 256.912H303.214V264.906ZM316.697 262.878V258.364H317.87V266H316.697V264.707H316.617C316.438 265.095 316.16 265.425 315.782 265.697C315.404 265.965 314.927 266.099 314.35 266.099C313.873 266.099 313.449 265.995 313.078 265.786C312.706 265.574 312.415 265.256 312.203 264.832C311.99 264.404 311.884 263.866 311.884 263.216V258.364H313.058V263.136C313.058 263.693 313.213 264.137 313.525 264.469C313.84 264.8 314.241 264.966 314.728 264.966C315.02 264.966 315.316 264.891 315.618 264.742C315.923 264.593 316.178 264.364 316.384 264.056C316.593 263.748 316.697 263.355 316.697 262.878ZM320.019 266V258.364H321.153V259.557H321.252C321.411 259.149 321.668 258.833 322.023 258.607C322.377 258.379 322.803 258.264 323.3 258.264C323.804 258.264 324.223 258.379 324.558 258.607C324.896 258.833 325.16 259.149 325.349 259.557H325.428C325.624 259.162 325.917 258.849 326.308 258.617C326.699 258.382 327.168 258.264 327.715 258.264C328.398 258.264 328.956 258.478 329.391 258.906C329.825 259.33 330.042 259.991 330.042 260.889V266H328.869V260.889C328.869 260.326 328.714 259.923 328.406 259.681C328.098 259.439 327.735 259.318 327.317 259.318C326.781 259.318 326.365 259.481 326.07 259.805C325.775 260.127 325.627 260.535 325.627 261.028V266H324.434V260.77C324.434 260.336 324.293 259.986 324.011 259.721C323.73 259.452 323.367 259.318 322.923 259.318C322.618 259.318 322.333 259.399 322.067 259.562C321.806 259.724 321.594 259.95 321.431 260.238C321.272 260.523 321.192 260.853 321.192 261.227V266H320.019ZM332.187 266V258.364H333.321V259.557H333.42C333.579 259.149 333.836 258.833 334.191 258.607C334.545 258.379 334.971 258.264 335.468 258.264C335.972 258.264 336.391 258.379 336.726 258.607C337.064 258.833 337.328 259.149 337.517 259.557H337.596C337.792 259.162 338.085 258.849 338.476 258.617C338.867 258.382 339.336 258.264 339.883 258.264C340.566 258.264 341.124 258.478 341.559 258.906C341.993 259.33 342.21 259.991 342.21 260.889V266H341.037V260.889C341.037 260.326 340.882 259.923 340.574 259.681C340.266 259.439 339.903 259.318 339.485 259.318C338.949 259.318 338.533 259.481 338.238 259.805C337.943 260.127 337.795 260.535 337.795 261.028V266H336.602V260.77C336.602 260.336 336.461 259.986 336.179 259.721C335.898 259.452 335.535 259.318 335.091 259.318C334.786 259.318 334.501 259.399 334.235 259.562C333.974 259.724 333.761 259.95 333.599 260.238C333.44 260.523 333.36 260.853 333.36 261.227V266H332.187ZM344.837 268.864C344.638 268.864 344.461 268.847 344.305 268.814C344.15 268.784 344.042 268.754 343.982 268.724L344.281 267.69C344.566 267.763 344.817 267.79 345.036 267.77C345.255 267.75 345.449 267.652 345.618 267.477C345.79 267.304 345.948 267.024 346.09 266.636L346.309 266.04L343.485 258.364H344.758L346.866 264.449H346.945L349.053 258.364H350.326L347.085 267.114C346.939 267.508 346.758 267.835 346.543 268.093C346.327 268.355 346.077 268.549 345.792 268.675C345.51 268.801 345.192 268.864 344.837 268.864ZM355.812 266V258.364H356.946V259.557H357.045C357.204 259.149 357.461 258.833 357.816 258.607C358.17 258.379 358.596 258.264 359.093 258.264C359.597 258.264 360.016 258.379 360.351 258.607C360.689 258.833 360.953 259.149 361.142 259.557H361.221C361.417 259.162 361.71 258.849 362.101 258.617C362.492 258.382 362.961 258.264 363.508 258.264C364.191 258.264 364.749 258.478 365.184 258.906C365.618 259.33 365.835 259.991 365.835 260.889V266H364.662V260.889C364.662 260.326 364.507 259.923 364.199 259.681C363.891 259.439 363.528 259.318 363.11 259.318C362.574 259.318 362.158 259.481 361.863 259.805C361.568 260.127 361.42 260.535 361.42 261.028V266H360.227V260.77C360.227 260.336 360.086 259.986 359.804 259.721C359.523 259.452 359.16 259.318 358.716 259.318C358.411 259.318 358.126 259.399 357.86 259.562C357.599 259.724 357.386 259.95 357.224 260.238C357.065 260.523 356.985 260.853 356.985 261.227V266H355.812ZM371.182 266.159C370.446 266.159 369.811 265.997 369.278 265.672C368.747 265.344 368.338 264.886 368.05 264.3C367.765 263.71 367.622 263.024 367.622 262.241C367.622 261.459 367.765 260.77 368.05 260.173C368.338 259.573 368.739 259.106 369.253 258.771C369.77 258.433 370.373 258.264 371.062 258.264C371.46 258.264 371.853 258.33 372.241 258.463C372.629 258.596 372.982 258.811 373.3 259.109C373.618 259.404 373.871 259.795 374.06 260.283C374.249 260.77 374.344 261.37 374.344 262.082V262.58H368.457V261.565H373.151C373.151 261.134 373.064 260.75 372.892 260.412C372.723 260.074 372.481 259.807 372.166 259.612C371.855 259.416 371.487 259.318 371.062 259.318C370.595 259.318 370.191 259.434 369.849 259.666C369.511 259.895 369.251 260.193 369.069 260.561C368.887 260.929 368.795 261.323 368.795 261.744V262.42C368.795 262.997 368.895 263.486 369.094 263.887C369.296 264.285 369.576 264.588 369.934 264.797C370.292 265.002 370.708 265.105 371.182 265.105C371.49 265.105 371.768 265.062 372.017 264.976C372.269 264.886 372.486 264.754 372.668 264.578C372.851 264.399 372.991 264.177 373.091 263.912L374.224 264.23C374.105 264.615 373.905 264.953 373.623 265.244C373.341 265.533 372.993 265.758 372.579 265.92C372.165 266.08 371.699 266.159 371.182 266.159ZM381.538 260.074L380.484 260.372C380.417 260.196 380.32 260.026 380.19 259.86C380.064 259.691 379.892 259.552 379.673 259.442C379.455 259.333 379.174 259.278 378.833 259.278C378.366 259.278 377.976 259.386 377.665 259.602C377.357 259.814 377.202 260.084 377.202 260.412C377.202 260.704 377.308 260.934 377.521 261.103C377.733 261.272 378.064 261.413 378.515 261.526L379.648 261.804C380.331 261.97 380.84 262.223 381.175 262.565C381.509 262.903 381.677 263.339 381.677 263.872C381.677 264.31 381.551 264.701 381.299 265.045C381.05 265.39 380.702 265.662 380.255 265.861C379.808 266.06 379.287 266.159 378.694 266.159C377.915 266.159 377.27 265.99 376.76 265.652C376.25 265.314 375.926 264.82 375.79 264.17L376.904 263.892C377.01 264.303 377.211 264.611 377.506 264.817C377.804 265.022 378.193 265.125 378.674 265.125C379.221 265.125 379.655 265.009 379.977 264.777C380.301 264.542 380.464 264.26 380.464 263.932C380.464 263.667 380.371 263.445 380.185 263.266C380 263.083 379.715 262.947 379.33 262.858L378.058 262.56C377.358 262.394 376.844 262.137 376.516 261.789C376.192 261.438 376.029 260.999 376.029 260.472C376.029 260.041 376.15 259.66 376.392 259.328C376.637 258.997 376.97 258.737 377.391 258.548C377.816 258.359 378.296 258.264 378.833 258.264C379.589 258.264 380.182 258.43 380.613 258.761C381.047 259.093 381.355 259.53 381.538 260.074ZM388.852 260.074L387.798 260.372C387.732 260.196 387.634 260.026 387.505 259.86C387.379 259.691 387.206 259.552 386.988 259.442C386.769 259.333 386.489 259.278 386.148 259.278C385.68 259.278 385.291 259.386 384.979 259.602C384.671 259.814 384.517 260.084 384.517 260.412C384.517 260.704 384.623 260.934 384.835 261.103C385.047 261.272 385.379 261.413 385.829 261.526L386.963 261.804C387.646 261.97 388.154 262.223 388.489 262.565C388.824 262.903 388.991 263.339 388.991 263.872C388.991 264.31 388.865 264.701 388.613 265.045C388.365 265.39 388.017 265.662 387.569 265.861C387.122 266.06 386.602 266.159 386.008 266.159C385.229 266.159 384.585 265.99 384.074 265.652C383.564 265.314 383.241 264.82 383.105 264.17L384.219 263.892C384.325 264.303 384.525 264.611 384.82 264.817C385.118 265.022 385.508 265.125 385.988 265.125C386.535 265.125 386.97 265.009 387.291 264.777C387.616 264.542 387.778 264.26 387.778 263.932C387.778 263.667 387.685 263.445 387.5 263.266C387.314 263.083 387.029 262.947 386.645 262.858L385.372 262.56C384.673 262.394 384.159 262.137 383.831 261.789C383.506 261.438 383.344 260.999 383.344 260.472C383.344 260.041 383.465 259.66 383.706 259.328C383.952 258.997 384.285 258.737 384.706 258.548C385.13 258.359 385.611 258.264 386.148 258.264C386.903 258.264 387.497 258.43 387.927 258.761C388.362 259.093 388.67 259.53 388.852 260.074ZM393.005 266.179C392.521 266.179 392.082 266.088 391.687 265.906C391.293 265.72 390.98 265.453 390.748 265.105C390.516 264.754 390.4 264.33 390.4 263.832C390.4 263.395 390.486 263.04 390.658 262.768C390.83 262.493 391.061 262.278 391.349 262.122C391.637 261.966 391.956 261.85 392.304 261.774C392.655 261.695 393.008 261.632 393.363 261.585C393.827 261.526 394.203 261.481 394.491 261.451C394.783 261.418 394.995 261.363 395.127 261.287C395.263 261.211 395.331 261.078 395.331 260.889V260.849C395.331 260.359 395.197 259.978 394.929 259.706C394.663 259.434 394.261 259.298 393.721 259.298C393.16 259.298 392.721 259.421 392.403 259.666C392.085 259.911 391.861 260.173 391.732 260.452L390.618 260.054C390.817 259.59 391.082 259.229 391.414 258.97C391.748 258.708 392.113 258.526 392.507 258.423C392.905 258.317 393.296 258.264 393.681 258.264C393.926 258.264 394.208 258.294 394.526 258.354C394.847 258.41 395.157 258.528 395.456 258.707C395.757 258.886 396.007 259.156 396.206 259.517C396.405 259.878 396.505 260.362 396.505 260.969V266H395.331V264.966H395.272C395.192 265.132 395.06 265.309 394.874 265.498C394.688 265.687 394.441 265.848 394.133 265.98C393.825 266.113 393.449 266.179 393.005 266.179ZM393.184 265.125C393.648 265.125 394.039 265.034 394.357 264.852C394.678 264.669 394.92 264.434 395.083 264.146C395.248 263.857 395.331 263.554 395.331 263.236V262.162C395.282 262.222 395.172 262.276 395.003 262.326C394.837 262.372 394.645 262.414 394.426 262.45C394.211 262.483 394.001 262.513 393.795 262.54C393.593 262.563 393.429 262.583 393.303 262.599C392.998 262.639 392.713 262.704 392.448 262.793C392.186 262.879 391.974 263.01 391.811 263.186C391.652 263.358 391.573 263.594 391.573 263.892C391.573 264.3 391.724 264.608 392.025 264.817C392.33 265.022 392.716 265.125 393.184 265.125ZM401.729 269.023C401.162 269.023 400.675 268.95 400.267 268.804C399.859 268.661 399.519 268.473 399.248 268.237C398.979 268.005 398.765 267.757 398.606 267.491L399.541 266.835C399.647 266.974 399.781 267.134 399.944 267.312C400.106 267.495 400.328 267.652 400.61 267.785C400.895 267.921 401.268 267.989 401.729 267.989C402.345 267.989 402.854 267.839 403.255 267.541C403.656 267.243 403.856 266.776 403.856 266.139V264.588H403.757C403.671 264.727 403.548 264.9 403.389 265.105C403.233 265.307 403.008 265.488 402.713 265.647C402.421 265.803 402.027 265.881 401.53 265.881C400.913 265.881 400.36 265.735 399.869 265.443C399.382 265.152 398.996 264.727 398.711 264.17C398.429 263.614 398.288 262.937 398.288 262.142C398.288 261.36 398.426 260.679 398.701 260.099C398.976 259.515 399.359 259.065 399.849 258.746C400.34 258.425 400.907 258.264 401.55 258.264C402.047 258.264 402.441 258.347 402.733 258.513C403.028 258.675 403.253 258.861 403.409 259.07C403.568 259.275 403.691 259.444 403.777 259.577H403.896V258.364H405.03V266.219C405.03 266.875 404.881 267.409 404.582 267.82C404.287 268.234 403.89 268.537 403.389 268.729C402.892 268.925 402.338 269.023 401.729 269.023ZM401.689 264.827C402.159 264.827 402.557 264.719 402.882 264.504C403.207 264.288 403.454 263.978 403.623 263.574C403.792 263.17 403.876 262.686 403.876 262.122C403.876 261.572 403.793 261.086 403.628 260.665C403.462 260.245 403.217 259.915 402.892 259.676C402.567 259.437 402.166 259.318 401.689 259.318C401.192 259.318 400.777 259.444 400.446 259.696C400.118 259.948 399.871 260.286 399.705 260.71C399.543 261.134 399.461 261.605 399.461 262.122C399.461 262.652 399.544 263.121 399.71 263.529C399.879 263.933 400.128 264.252 400.456 264.484C400.787 264.712 401.198 264.827 401.689 264.827ZM410.379 266.159C409.643 266.159 409.009 265.997 408.475 265.672C407.945 265.344 407.535 264.886 407.247 264.3C406.962 263.71 406.819 263.024 406.819 262.241C406.819 261.459 406.962 260.77 407.247 260.173C407.535 259.573 407.936 259.106 408.45 258.771C408.967 258.433 409.57 258.264 410.26 258.264C410.657 258.264 411.05 258.33 411.438 258.463C411.826 258.596 412.179 258.811 412.497 259.109C412.815 259.404 413.069 259.795 413.258 260.283C413.447 260.77 413.541 261.37 413.541 262.082V262.58H407.655V261.565H412.348C412.348 261.134 412.262 260.75 412.089 260.412C411.92 260.074 411.678 259.807 411.363 259.612C411.052 259.416 410.684 259.318 410.26 259.318C409.792 259.318 409.388 259.434 409.047 259.666C408.709 259.895 408.448 260.193 408.266 260.561C408.084 260.929 407.993 261.323 407.993 261.744V262.42C407.993 262.997 408.092 263.486 408.291 263.887C408.493 264.285 408.773 264.588 409.131 264.797C409.489 265.002 409.905 265.105 410.379 265.105C410.687 265.105 410.966 265.062 411.214 264.976C411.466 264.886 411.683 264.754 411.866 264.578C412.048 264.399 412.189 264.177 412.288 263.912L413.422 264.23C413.302 264.615 413.102 264.953 412.82 265.244C412.538 265.533 412.19 265.758 411.776 265.92C411.362 266.08 410.896 266.159 410.379 266.159ZM416.36 255.818V256.713C416.36 256.985 416.31 257.275 416.211 257.583C416.115 257.888 415.972 258.185 415.783 258.473C415.598 258.758 415.372 259.007 415.107 259.219L414.471 258.702C414.68 258.403 414.86 258.094 415.013 257.772C415.168 257.447 415.246 257.101 415.246 256.733V255.818H416.36ZM418.905 255.818V256.713C418.905 256.985 418.856 257.275 418.756 257.583C418.66 257.888 418.518 258.185 418.329 258.473C418.143 258.758 417.918 259.007 417.653 259.219L417.016 258.702C417.225 258.403 417.406 258.094 417.558 257.772C417.714 257.447 417.792 257.101 417.792 256.733V255.818H418.905Z" fill="white"/>
<defs>
<radialGradient id="paint0_radial_58_2323" cx="0" cy="0" r="1" gradientUnits="userSpaceOnUse" gradientTransform="translate(357 444.826) rotate(90) scale(427.826 432)">
<stop stop-color="white"/>
<stop offset="1" stop-color="white" stop-opacity="0"/>
</radialGradient>
</defs>
</svg>
