<svg width="26" height="27" viewBox="0 0 26 27" fill="none" xmlns="http://www.w3.org/2000/svg">
<path d="M11.6281 0H13.3097L13.3328 0.00720742C13.7293 0.127477 14.5398 0.148555 14.977 0.225837C15.301 0.283091 15.7552 0.371216 16.076 0.45944C17.9801 0.983145 19.8402 1.89334 21.3615 3.16176C21.6692 3.41833 22.1898 4.01124 22.4497 4.3234C22.6288 4.53833 23.0563 5.08813 23.1723 5.32521C23.3839 5.75741 23.6843 6.31534 23.8378 6.77621C23.8654 6.85906 23.8655 7.01509 23.8375 7.1004C23.6738 7.59922 23.4293 8.05262 23.2187 8.53152C22.465 10.2454 21.7133 11.9665 20.9418 13.672C20.8067 13.9706 20.7204 14.3645 20.5599 14.7034C20.2976 15.2573 20.0633 15.8449 19.8149 16.4063C19.7014 16.663 19.5576 16.9187 19.4413 17.1782C19.2633 17.5757 19.143 17.9663 18.9181 18.3412C18.6071 18.8597 18.1946 19.1546 17.6776 19.4456C16.8525 19.91 15.4943 19.8907 14.6028 19.6071C13.5728 19.2795 12.8006 18.6503 12.2977 17.7291C12.0766 17.3243 10.3191 13.3151 10.2516 13.2668C10.1965 13.3115 10.0688 13.7127 10.0159 13.8383C9.74921 14.4701 9.4898 15.1049 9.23768 15.7426C8.9683 16.416 8.57283 17.3405 8.21002 17.9689C7.92988 18.4542 6.81815 19.3132 6.27926 19.4665C6.45266 19.6608 6.70561 20.0716 6.85159 20.2034C7.45721 20.7502 8.17524 21.3631 8.91046 21.7261C9.31982 21.9282 10.0431 22.2553 10.4658 22.4022C11.0074 22.5904 11.7883 22.6724 12.3561 22.7467C13.5424 22.8192 14.7989 22.6246 15.8964 22.1661C16.1295 22.0688 16.6247 21.8704 16.8329 21.7246C17.4503 21.2921 18.0422 20.7865 18.6163 20.2976C19.4858 19.5031 20.435 17.8376 20.7602 16.7132C21.2259 14.9316 21.2621 13.0193 23.671 13.2194C24.3566 13.2493 24.7478 13.4352 25.2191 13.9299C26.3127 15.0489 25.5774 16.7992 25.1528 18.0635C24.8417 18.99 24.4114 20.0987 23.9183 20.9595C23.3891 21.8832 22.5206 22.881 21.7725 23.6372C21.6097 23.8017 21.336 23.9489 21.1597 24.1069C20.9901 24.2495 20.8111 24.4174 20.6375 24.5455C19.4929 25.3733 18.2104 25.9915 16.8497 26.3712C16.5614 26.4486 16.1015 26.5104 15.855 26.583C15.4436 26.7045 14.4958 26.704 14.196 26.8319H12.4598C12.272 26.7235 11.3404 26.661 11.0383 26.6119C10.7039 26.5542 10.3712 26.4869 10.0408 26.4099C9.00951 26.1608 8.00828 25.8009 7.05458 25.3361C6.15113 24.8975 5.09942 24.1355 4.28933 23.5281C4.06419 23.3593 3.84698 23.0403 3.58299 22.8518C3.47954 22.7779 3.2019 22.2822 3.1048 22.1718C2.57677 21.4229 2.24451 20.7004 1.94775 19.8381C2.00403 19.6552 2.12075 19.4361 2.19148 19.251C2.5204 18.4501 2.86597 17.6765 3.18788 16.8717C3.62357 15.7824 4.14023 14.7101 4.5981 13.6285C4.6935 13.4031 4.81857 13.1865 4.91856 12.9633L6.5162 9.3323C6.70339 8.90967 6.7368 8.56585 7.05658 8.19607C8.56744 6.45777 11.7373 6.79469 13.1325 8.51947C13.6216 9.1241 13.7004 9.63662 14.0085 10.315C14.4027 11.1616 14.7784 12.0166 15.1354 12.8795C15.2557 13.1631 15.4068 13.4157 15.5024 13.6952C16.1166 12.438 16.5769 11.0474 17.1457 9.76275C17.2746 9.47142 17.3471 9.22477 17.5087 8.93767C17.6622 8.66783 17.8549 8.4223 18.0806 8.20916C18.4673 7.84964 19.0892 7.59172 19.5709 7.36854C19.3972 7.16907 19.1826 6.83955 19.0062 6.66653C18.3853 6.05775 17.51 5.39769 16.755 4.97584C16.4594 4.81068 15.7352 4.5255 15.4097 4.42617C13.5613 3.86217 11.2465 3.90654 9.50977 4.80617C8.75967 5.19473 8.03364 5.68203 7.40671 6.23899C7.24906 6.37905 7.06172 6.52521 6.91769 6.67531C6.83385 6.76269 6.7286 6.99874 6.64762 7.10148C5.89023 8.06579 5.36344 9.19414 4.97035 10.3506C4.60718 11.4192 4.67358 12.7294 3.52586 13.3443C2.50826 13.8895 0.746571 13.5626 0.249683 12.4335C0.164656 12.2403 0.10769 12.0327 0.0114216 11.8448L0 11.8229V10.9682C0.0475013 10.8998 0.302084 9.81421 0.358269 9.61591C0.634067 8.64247 0.983107 7.61083 1.43931 6.70412C2.0247 5.54065 2.87587 4.38202 3.75375 3.41957C4.58516 2.56224 5.91149 1.76802 6.95766 1.19934C7.47533 0.917931 8.32084 0.678046 8.88054 0.490398C9.01255 0.455013 9.33177 0.394416 9.43543 0.351571C9.98642 0.12382 11.1589 0.185566 11.6281 0Z" fill="url(#paint0_linear_1835_2813)"/>
<defs>
<linearGradient id="paint0_linear_1835_2813" x1="12.8955" y1="0" x2="12.8955" y2="26.8319" gradientUnits="userSpaceOnUse">
<stop stop-color="#4F52EE"/>
<stop offset="1" stop-color="#15A9FB"/>
</linearGradient>
</defs>
</svg>
