<svg width="46" height="48" viewBox="0 0 46 48" fill="none" xmlns="http://www.w3.org/2000/svg">
<path d="M20.6722 0H23.6618L23.7028 0.0128132C24.4076 0.226626 25.8486 0.264097 26.6259 0.401488C27.2017 0.503274 28.0093 0.65994 28.5796 0.816782C31.9646 1.74781 35.2715 3.36594 37.976 5.6209C38.523 6.07703 39.4484 7.13109 39.9107 7.68604C40.2289 8.06815 40.9889 9.04557 41.1952 9.46705C41.5713 10.2354 42.1054 11.2273 42.3783 12.0466C42.4273 12.1939 42.4276 12.4713 42.3778 12.6229C42.0868 13.5097 41.652 14.3158 41.2776 15.1672C39.9377 18.2141 38.6013 21.2738 37.2299 24.3058C36.9897 24.8367 36.8362 25.5369 36.5509 26.1394C36.0846 27.1241 35.668 28.1688 35.2265 29.1668C35.0246 29.6231 34.7691 30.0776 34.5624 30.5391C34.2458 31.2457 34.032 31.94 33.6322 32.6066C33.0794 33.5283 32.3459 34.0526 31.4269 34.5699C29.9601 35.3956 27.5455 35.3612 25.9606 34.8571C24.1295 34.2747 22.7566 33.1561 21.8625 31.5185C21.4696 30.7988 18.3451 23.6713 18.2251 23.5855C18.127 23.6649 17.9 24.3781 17.806 24.6014C17.3319 25.7246 16.8708 26.8532 16.4225 27.9869C15.9436 29.1841 15.2406 30.8275 14.5956 31.9447C14.0976 32.8074 12.1212 34.3346 11.1631 34.6072C11.4714 34.9525 11.9211 35.6829 12.1806 35.9172C13.2573 36.8893 14.5338 37.9788 15.8408 38.6242C16.5686 38.9835 17.8544 39.5649 18.6059 39.8261C19.5687 40.1607 20.9569 40.3064 21.9664 40.4386C24.0754 40.5674 26.3091 40.2214 28.2603 39.4065C28.6747 39.2334 29.5551 38.8808 29.9251 38.6215C31.0227 37.8526 32.0749 36.9539 33.0956 36.0845C34.6414 34.6722 36.3289 31.7113 36.907 29.7124C37.7349 26.545 37.7992 23.1454 42.0819 23.5012C43.3006 23.5543 43.9962 23.8848 44.834 24.7643C46.7781 26.7535 45.4708 29.8653 44.7161 32.1128C44.1631 33.76 43.398 35.731 42.5213 37.2613C41.5806 38.9035 40.0367 40.6774 38.7066 42.0216C38.4173 42.3141 37.9307 42.5758 37.6173 42.8566C37.3157 43.1102 36.9975 43.4086 36.6889 43.6365C34.654 45.1081 32.374 46.2071 29.9549 46.8821C29.4425 47.0198 28.6249 47.1296 28.1867 47.2587C27.4553 47.4747 25.7703 47.4738 25.2373 47.7011H22.1507C21.817 47.5085 20.1607 47.3973 19.6236 47.31C19.0291 47.2074 18.4377 47.0877 17.8502 46.9509C16.0169 46.5081 14.2369 45.8682 12.5415 45.042C10.9353 44.2622 9.06564 42.9076 7.62547 41.8278C7.22523 41.5277 6.83908 40.9606 6.36976 40.6254C6.18584 40.494 5.69227 39.6127 5.51965 39.4165C4.58093 38.0852 3.99023 36.8007 3.46267 35.2678C3.56272 34.9425 3.77021 34.5531 3.89596 34.224C4.4807 32.8002 5.09506 31.4249 5.66734 29.9941C6.4419 28.0575 7.36041 26.1514 8.17439 24.2284C8.344 23.8276 8.56635 23.4427 8.74411 23.0459L11.5843 16.5908C11.9171 15.8394 11.9765 15.2282 12.545 14.5708C15.231 11.4805 20.8663 12.0794 23.3466 15.1457C24.2161 16.2206 24.3563 17.1318 24.904 18.3377C25.6048 19.8428 26.2727 21.3628 26.9074 22.8969C27.1212 23.401 27.3899 23.8501 27.5598 24.347C28.6518 22.112 29.4701 19.6398 30.4812 17.356C30.7105 16.8381 30.8393 16.3996 31.1266 15.8892C31.3994 15.4095 31.742 14.973 32.1432 14.5941C32.8307 13.9549 33.9364 13.4964 34.7928 13.0996C34.484 12.745 34.1025 12.1592 33.7888 11.8516C32.6851 10.7693 31.1288 9.59589 29.7866 8.84594C29.2611 8.55231 27.9737 8.04533 27.395 7.86875C24.109 6.86608 19.9937 6.94497 16.9063 8.5443C15.5727 9.23507 14.282 10.1014 13.1675 11.0915C12.8872 11.3405 12.5542 11.6004 12.2981 11.8672C12.1491 12.0226 11.962 12.4422 11.818 12.6249C10.4715 14.3392 9.535 16.3451 8.83618 18.4011C8.19055 20.3008 8.30859 22.63 6.26819 23.7232C4.45913 24.6924 1.32724 24.1112 0.443881 22.1039C0.292721 21.7605 0.191449 21.3914 0.020305 21.0575L0 21.0185V19.499C0.0844467 19.3774 0.537038 17.4475 0.636922 17.0949C1.12723 15.3644 1.74775 13.5304 2.55878 11.9184C3.59948 9.85005 5.11266 7.79026 6.67334 6.07924C8.1514 4.5551 10.5093 3.14315 12.3692 2.13217C13.2895 1.63188 14.7926 1.20542 15.7876 0.871819C16.0223 0.808912 16.5898 0.701184 16.7741 0.625015C17.7536 0.220124 19.838 0.329895 20.6722 0Z" fill="url(#paint0_linear_41_438)"/>
<defs>
<linearGradient id="paint0_linear_41_438" x1="22.9254" y1="0" x2="22.9254" y2="47.7011" gradientUnits="userSpaceOnUse">
<stop stop-color="#4F52EE"/>
<stop offset="1" stop-color="#15A9FB"/>
</linearGradient>
</defs>
</svg>
